<?xml version="1.0" encoding="UTF-8"?><svg id="Layer_1" xmlns="http://www.w3.org/2000/svg" width="1920" height="1080" viewBox="0 0 1920 1080"><defs><style>.cls-1{fill:none;}.cls-2{fill:#fff;}</style></defs><rect class="cls-1" x="159" y="33" width="70" height="85" rx="27" ry="27"/><rect class="cls-1" x="355" y="33" width="70" height="85" rx="27" ry="27"/><rect class="cls-1" x="545" y="33" width="70" height="85" rx="27" ry="27"/><rect class="cls-1" x="735" y="33" width="70" height="85" rx="27" ry="27"/><rect class="cls-1" x="545" y="962" width="70" height="85" rx="27" ry="27"/><rect class="cls-1" x="159" y="962" width="70" height="85" rx="27" ry="27"/><rect class="cls-1" x="355" y="962" width="70" height="85" rx="27" ry="27"/><rect class="cls-1" x="1691" y="33" width="70" height="85" rx="27" ry="27"/><rect class="cls-1" x="1496" y="33" width="70" height="85" rx="27" ry="27"/><path class="cls-1" d="m325,928h1271c3.16,0,6.27-.17,9.34-.5H315.66c3.07.33,6.18.5,9.34.5Z"/><rect class="cls-1" x="1304" y="33" width="70" height="85" rx="27" ry="27"/><rect class="cls-1" x="924" y="33" width="70" height="85" rx="27" ry="27"/><rect class="cls-1" x="1116" y="33" width="70" height="85" rx="27" ry="27"/><rect class="cls-1" x="1304" y="962" width="70" height="85" rx="27" ry="27"/><rect class="cls-1" x="735" y="962" width="70" height="85" rx="27" ry="27"/><rect class="cls-1" x="1691" y="962" width="70" height="85" rx="27" ry="27"/><rect class="cls-1" x="1496" y="962" width="70" height="85" rx="27" ry="27"/><rect class="cls-1" x="1116" y="962" width="70" height="85" rx="27" ry="27"/><rect class="cls-1" x="924" y="962" width="70" height="85" rx="27" ry="27"/><path d="m1873,934h-112v-6.5h-155.66c-3.07.33-6.18.5-9.34.5H325c-3.16,0-6.27-.17-9.34-.5h-138.66v6.5H47v144H0v2h1920v-2h-47v-144Zm-1644,86c0,14.91-12.09,27-27,27h-16c-14.91,0-27-12.09-27-27v-31c0-14.91,12.09-27,27-27h16c14.91,0,27,12.09,27,27v31Zm196,0c0,14.91-12.09,27-27,27h-16c-14.91,0-27-12.09-27-27v-31c0-14.91,12.09-27,27-27h16c14.91,0,27,12.09,27,27v31Zm190,0c0,14.91-12.09,27-27,27h-16c-14.91,0-27-12.09-27-27v-31c0-14.91,12.09-27,27-27h16c14.91,0,27,12.09,27,27v31Zm190,0c0,14.91-12.09,27-27,27h-16c-14.91,0-27-12.09-27-27v-31c0-14.91,12.09-27,27-27h16c14.91,0,27,12.09,27,27v31Zm189,0c0,14.91-12.09,27-27,27h-16c-14.91,0-27-12.09-27-27v-31c0-14.91,12.09-27,27-27h16c14.91,0,27,12.09,27,27v31Zm192,0c0,14.91-12.09,27-27,27h-16c-14.91,0-27-12.09-27-27v-31c0-14.91,12.09-27,27-27h16c14.91,0,27,12.09,27,27v31Zm188,0c0,14.91-12.09,27-27,27h-16c-14.91,0-27-12.09-27-27v-31c0-14.91,12.09-27,27-27h16c14.91,0,27,12.09,27,27v31Zm192,0c0,14.91-12.09,27-27,27h-16c-14.91,0-27-12.09-27-27v-31c0-14.91,12.09-27,27-27h16c14.91,0,27,12.09,27,27v31Zm195,0c0,14.91-12.09,27-27,27h-16c-14.91,0-27-12.09-27-27v-31c0-14.91,12.09-27,27-27h16c14.91,0,27,12.09,27,27v31Z"/><path d="m47,146h130v6.5h1584v-6.5h112V1h47V0H0v1h47v145ZM1691,60c0-14.91,12.09-27,27-27h16c14.91,0,27,12.09,27,27v31c0,14.91-12.09,27-27,27h-16c-14.91,0-27-12.09-27-27v-31Zm-195,0c0-14.91,12.09-27,27-27h16c14.91,0,27,12.09,27,27v31c0,14.91-12.09,27-27,27h-16c-14.91,0-27-12.09-27-27v-31Zm-192,0c0-14.91,12.09-27,27-27h16c14.91,0,27,12.09,27,27v31c0,14.91-12.09,27-27,27h-16c-14.91,0-27-12.09-27-27v-31Zm-188,0c0-14.91,12.09-27,27-27h16c14.91,0,27,12.09,27,27v31c0,14.91-12.09,27-27,27h-16c-14.91,0-27-12.09-27-27v-31Zm-192,0c0-14.91,12.09-27,27-27h16c14.91,0,27,12.09,27,27v31c0,14.91-12.09,27-27,27h-16c-14.91,0-27-12.09-27-27v-31Zm-189,0c0-14.91,12.09-27,27-27h16c14.91,0,27,12.09,27,27v31c0,14.91-12.09,27-27,27h-16c-14.91,0-27-12.09-27-27v-31Zm-190,0c0-14.91,12.09-27,27-27h16c14.91,0,27,12.09,27,27v31c0,14.91-12.09,27-27,27h-16c-14.91,0-27-12.09-27-27v-31Zm-190,0c0-14.91,12.09-27,27-27h16c14.91,0,27,12.09,27,27v31c0,14.91-12.09,27-27,27h-16c-14.91,0-27-12.09-27-27v-31Zm-196,0c0-14.91,12.09-27,27-27h16c14.91,0,27,12.09,27,27v31c0,14.91-12.09,27-27,27h-16c-14.91,0-27-12.09-27-27v-31Z"/><path d="m35,989v31c0,14.91-12.09,27-27,27h10c14.91,0,27-12.09,27-27v-31c0-14.91-12.09-27-27-27h-10c14.91,0,27,12.09,27,27Z"/><path d="m35,60v31c0,14.91-12.09,27-27,27h10c14.91,0,27-12.09,27-27v-31c0-14.91-12.09-27-27-27h-10c14.91,0,27,12.09,27,27Z"/><path d="m47,854.13c-2.6-8.99-4-18.49-4-28.32V254.18c0-9.83,1.4-19.33,4-28.32v-62.87H0v765h47v-73.87Z"/><path d="m47,934v-6H0v34h18c14.91,0,27,12.09,27,27v31c0,14.91-12.09,27-27,27H0v31h47v-144Z"/><path d="m47,146V1H0v32h18c14.91,0,27,12.09,27,27v31c0,14.91-12.09,27-27,27H0v45h47v-17Z"/><path d="m1885,91v-31c0-14.91,12.09-27,27-27h-10c-14.91,0-27,12.09-27,27v31c0,14.91,12.09,27,27,27h10c-14.91,0-27-12.09-27-27Z"/><rect x="1891" y="163" width="29" height="765"/><path d="m1885,1020v-31c0-14.91,12.09-27,27-27h-10c-14.91,0-27,12.09-27,27v31c0,14.91,12.09,27,27,27h10c-14.91,0-27-12.09-27-27Z"/><path d="m1873,146h18v17h29v-45h-18c-14.91,0-27-12.09-27-27v-31c0-14.91,12.09-27,27-27h18V1h-47v145Z"/><path d="m1891,928v6h-18v144h47v-31h-18c-14.91,0-27-12.09-27-27v-31c0-14.91,12.09-27,27-27h18v-34h-29Z"/><path d="m91.22,167.68c-8.85-3.03-18.34-4.68-28.22-4.68h-16v62.87c7.07-24.44,23.06-45.08,44.22-58.18Z"/><path d="m102.68,918.44c-26.8-12.17-47.38-35.63-55.68-64.31v73.87h16c14.29,0,27.78-3.45,39.68-9.56Z"/><path d="m91.22,167.68c15.53-9.62,33.85-15.18,53.46-15.18h32.32v-6.5H47v17h16c9.88,0,19.37,1.65,28.22,4.68Z"/><path d="m102.68,918.44c-11.9,6.11-25.39,9.56-39.68,9.56h-16v6h130v-6.5h-32.32c-14.98,0-29.2-3.24-42-9.06Z"/><path d="m1828.78,167.68c21.16,13.1,37.15,33.75,44.22,58.18v-62.87h-16c-9.88,0-19.37,1.65-28.22,4.68Z"/><path d="m1817.32,918.44c11.9,6.11,25.39,9.56,39.68,9.56h16v-73.87c-8.3,28.68-28.88,52.14-55.68,64.31Z"/><path d="m1828.78,167.68c8.85-3.03,18.34-4.68,28.22-4.68h16v-17h-112v6.5h14.32c19.62,0,37.93,5.56,53.46,15.18Z"/><path d="m1857,928c-14.29,0-27.78-3.45-39.68-9.56-12.8,5.82-27.02,9.06-42,9.06h-14.32v6.5h112v-6h-16Z"/><path d="m1873,163v62.87c2.6,8.99,4,18.49,4,28.32v571.64c0,9.83-1.4,19.33-4,28.32v73.87h18V163h-18Z"/><rect x="1873" y="146" width="18" height="17"/><rect x="1873" y="928" width="18" height="6"/><path class="cls-2" d="m1920,33.08v-.08h-2c.67,0,1.34.03,2,.08Z"/><path class="cls-2" d="m1918,118h2v-.08c-.66.05-1.33.08-2,.08Z"/><path class="cls-2" d="m0,117.92v.08h2c-.67,0-1.34-.03-2-.08Z"/><path class="cls-2" d="m2,33H0v.08c.66-.05,1.33-.08,2-.08Z"/><path class="cls-2" d="m0,1046.92v.08h2c-.67,0-1.34-.03-2-.08Z"/><path class="cls-2" d="m2,962H0v.08c.66-.05,1.33-.08,2-.08Z"/><path class="cls-2" d="m1918,1047h2v-.08c-.66.05-1.33.08-2,.08Z"/><path class="cls-2" d="m1920,962.08v-.08h-2c.67,0,1.34.03,2,.08Z"/></svg>