<?xml version="1.0" encoding="UTF-8"?><svg id="Open_1" xmlns="http://www.w3.org/2000/svg" xmlns:xlink="http://www.w3.org/1999/xlink" viewBox="0 0 1007.5 1007.5"><defs><style>.cls-1{fill:url(#linear-gradient-2);}.cls-2{fill:#262626;}.cls-3{fill:#3f3f3f;}.cls-4{fill:url(#linear-gradient-6);}.cls-5{fill:url(#linear-gradient-11);}.cls-6{fill:url(#linear-gradient-10);}.cls-7{fill:url(#linear-gradient-5);}.cls-8{fill:url(#linear-gradient-7);}.cls-9{fill:url(#linear-gradient-9);}.cls-10{fill:url(#linear-gradient-3);}.cls-11{fill:url(#linear-gradient);}.cls-12{fill:url(#linear-gradient-4);}.cls-13{fill:#666;}.cls-14{fill:url(#linear-gradient-8);}</style><linearGradient id="linear-gradient" x1="306.2" y1="412" x2="201" y2="667" gradientUnits="userSpaceOnUse"><stop offset="0" stop-color="#2a2a2a"/><stop offset=".5" stop-color="#1a1a1a"/><stop offset="1" stop-color="#0f0f0f"/></linearGradient><linearGradient id="linear-gradient-2" x1="273.7" y1="538.6" x2="368.8" y2="799.4" xlink:href="#linear-gradient"/><linearGradient id="linear-gradient-3" x1="350.3" y1="651.2" x2="567.8" y2="857.2" xlink:href="#linear-gradient"/><linearGradient id="linear-gradient-4" x1="325.8" y1="728.5" x2="733.3" y2="728.5" xlink:href="#linear-gradient"/><linearGradient id="linear-gradient-5" x1="647.9" y1="664.3" x2="865.5" y2="560.9" xlink:href="#linear-gradient"/><linearGradient id="linear-gradient-6" x1="718.7" y1="544.7" x2="832.5" y2="318.6" xlink:href="#linear-gradient"/><linearGradient id="linear-gradient-7" x1="707.9" y1="423.7" x2="654.6" y2="196.1" xlink:href="#linear-gradient"/><linearGradient id="linear-gradient-8" x1="662.7" y1="368.5" x2="444.8" y2="144.2" xlink:href="#linear-gradient"/><linearGradient id="linear-gradient-9" x1="511.5" y1="281.4" x2="272.2" y2="275.6" xlink:href="#linear-gradient"/><linearGradient id="linear-gradient-10" x1="398.3" y1="316.6" x2="121.7" y2="472.2" xlink:href="#linear-gradient"/><linearGradient id="linear-gradient-11" x1="503.8" y1="960.3" x2="503.8" y2="59.6" gradientUnits="userSpaceOnUse"><stop offset="0" stop-color="#d1d3d4"/><stop offset="1" stop-color="#0f0f0f"/></linearGradient></defs><path class="cls-2" d="m503.7,3.7C227.6,3.7,3.8,227.6,3.8,503.7s223.9,500,500,500,500-223.9,500-500S779.9,3.7,503.7,3.7Zm0,817.8c-175.5,0-317.8-142.3-317.8-317.8S328.2,186,503.7,186s317.8,142.3,317.8,317.8-142.3,317.8-317.8,317.8Z"/><path class="cls-13" d="m396.7,645.7c-123.4-93.2-224.2-205.1-301.6-328.8-26.1,56.9-40.6,120.2-40.6,186.9s3,60.2,8.8,89c118.4,47.8,246.1,77.7,379.8,86.3-15.6-10.7-31.1-21.8-46.4-33.4Z"/><path class="cls-11" d="m399.3,647.7c-125.1-90.9-228-200.9-307.7-323.2-23.9,54.9-37.2,115.5-37.2,179.3s3.6,65.9,10.5,97.2c119.3,45.6,247.5,73.1,381.3,79.2-15.8-10.4-31.5-21.3-47-32.5Z"/><path class="cls-13" d="m199.8,834.7c123.9-31,244.7-81.8,357.8-153.4-18.9.5-38,.6-57.1.3-154.6-2.9-302-34.1-437.3-88.7,19.1,94.8,68,178.8,136.5,241.8Z"/><path class="cls-1" d="m206,840.3c123.3-33.3,243.1-86.4,354.9-160-18.9.9-38,1.3-57.1,1.3-154.6,0-302.5-28.5-438.9-80.6,20.8,94.3,71.2,177.5,141,239.3Z"/><path class="cls-13" d="m605.7,649.5c-126.7,88.5-264.3,149.8-405.8,185.2,68.1,62.6,155.6,104.4,252.5,115.5,82-97.9,149.9-210,199.4-334.5-15,11.5-30.4,22.8-46.1,33.8Z"/><path class="cls-10" d="m608.3,647.5c-125,90.9-261.5,154.7-402.3,192.7,69.2,61.2,157.4,101.5,254.6,110.7,80.2-99.4,146-212.8,193.1-338.1-14.8,11.8-29.9,23.4-45.4,34.6Z"/><path class="cls-13" d="m724.5,895.2c2-28.3,2.9-56.9,2.9-85.5,0-.2,0-.3,0-.5,0-1.4,0-2.8,0-4.3,0-.3,0-.7,0-1,0-1.2,0-2.5,0-3.7,0-.5,0-.9,0-1.4,0-1.1,0-2.2,0-3.3,0-.6,0-1.1,0-1.7,0-1,0-2,0-3,0-.7,0-1.3,0-2,0-.8,0-1.7,0-2.5,0-.8,0-1.6,0-2.4,0-.6,0-1.2,0-1.8-2.1-91.1-14.5-183.2-37.9-274.8-5.4,18.2-11.2,36.3-17.4,54.4-50.5,146.1-125.8,276.6-219.5,388.4,16.9,1.9,34,2.9,51.4,2.9,80.3,0,155.6-21,220.8-57.9Z"/><path class="cls-12" d="m731.8,891c1.4-28.4,1.9-56.9,1.3-85.5,0-.2,0-.3,0-.5,0-1.4,0-2.8,0-4.2,0-.3,0-.7,0-1,0-1.2,0-2.5,0-3.7,0-.5,0-.9,0-1.4,0-1.1,0-2.2,0-3.3,0-.6,0-1.1,0-1.7,0-1,0-2,0-2.9,0-.7,0-1.3,0-2,0-.8,0-1.7,0-2.5,0-.8,0-1.6,0-2.4,0-.6,0-1.2,0-1.8-3.8-91-17.9-182.9-43-274.1-5,18.3-10.5,36.5-16.4,54.7-47.8,147-120.6,278.9-212.2,392.4,14.2,1.3,28.5,2,43,2,83.2,0,161.2-22.6,228-62.1Z"/><path class="cls-13" d="m655.9,397.7c6.3,17.9,12.3,35.9,17.9,54.2,33.5,109.9,50.8,220.8,53.3,330.3,0,.6,0,1.2,0,1.8,0,.8,0,1.6,0,2.4,0,.8,0,1.7,0,2.5,0,.7,0,1.3,0,2,0,1,0,2,0,3,0,.6,0,1.1,0,1.7,0,1.1,0,2.2,0,3.3,0,.5,0,.9,0,1.4,0,1.2,0,2.5,0,3.7,0,.3,0,.7,0,1,0,1.4,0,2.8,0,4.3,0,.2,0,.3,0,.5,0,28.6-1,57.1-2.9,85.5,82.2-46.5,148.3-118.1,187.9-204.4-67.7-108.3-153.5-207.5-256.5-293.1Z"/><path class="cls-7" d="m653.9,394.9c6.7,17.7,13,35.7,18.9,53.9,35.5,109.2,54.9,219.8,59.5,329.2,0,.6,0,1.2,0,1.8,0,.8,0,1.6,0,2.4,0,.8,0,1.7,0,2.5,0,.7,0,1.3,0,2,0,1,0,2,0,2.9,0,.6,0,1.1,0,1.7,0,1.1,0,2.2,0,3.3,0,.5,0,.9,0,1.4,0,1.2,0,2.5,0,3.7,0,.3,0,.7,0,1,0,1.4,0,2.8,0,4.2,0,.2,0,.3,0,.5.6,28.6.1,57.1-1.3,85.5,81.2-47.9,146.1-120.7,184-207.9-69.7-107-157.3-204.6-261.9-288.2Z"/><path class="cls-13" d="m944.3,414.8c-118.4-47.8-246.1-77.7-379.8-86.3,15.6,10.7,31.1,21.8,46.4,33.4,123.4,93.2,224.2,205.1,301.6,328.8,26.1-56.9,40.6-120.2,40.6-186.9s-3-60.2-8.8-89Z"/><path class="cls-4" d="m608.2,359.9c125.1,90.9,228,200.9,307.7,323.2,23.9-54.9,37.2-115.6,37.2-179.3s-3.6-65.9-10.5-97.1c-119.3-45.6-247.5-73.1-381.3-79.2,15.8,10.4,31.5,21.3,47,32.5Z"/><path class="cls-13" d="m507,326c154.6,2.9,302,34.1,437.3,88.7-19.1-94.8-68-178.8-136.5-241.8-123.9,31-244.7,81.8-357.9,153.4,18.9-.5,38-.6,57.1-.3Z"/><path class="cls-8" d="m503.7,325.9c154.6,0,302.5,28.5,438.9,80.6-20.8-94.3-71.2-177.5-141-239.3-123.3,33.3-243.1,86.4-354.9,160,18.9-.9,38-1.3,57.1-1.3Z"/><path class="cls-13" d="m355.8,391.8c15-11.5,30.4-22.8,46.1-33.8,126.7-88.5,264.3-149.8,405.8-185.2-68.1-62.6-155.6-104.4-252.5-115.4-82,97.9-149.9,210-199.4,334.4Z"/><path class="cls-14" d="m353.7,394.6c14.8-11.8,29.9-23.4,45.4-34.6,125-90.8,261.5-154.7,402.3-192.7-69.2-61.2-157.4-101.5-254.6-110.7-80.2,99.4-145.9,212.8-193.1,338.1Z"/><path class="cls-13" d="m318.3,500.2c5.4-18.2,11.2-36.3,17.4-54.4,50.5-146.1,125.8-276.6,219.5-388.4-16.9-1.9-34-2.9-51.4-2.9-80.2,0-155.6,21-220.8,57.9-8.8,127.4,2.2,258.1,35.3,387.8Z"/><path class="cls-9" d="m318.2,503.6c5-18.3,10.5-36.5,16.4-54.7,47.8-147,120.6-278.9,212.2-392.4-14.2-1.3-28.5-2-43.1-2-83.2,0-161.2,22.6-228,62.1-6.5,127.5,7,258,42.5,387.1Z"/><path class="cls-13" d="m95,316.8c67.7,108.3,153.5,207.5,256.5,293-6.3-17.9-12.3-35.9-17.9-54.2-45-147.9-60.8-297.7-50.7-443.3-82.2,46.5-148.3,118.1-187.9,204.5Z"/><path class="cls-6" d="m95,316.9c68.1,108.8,154.2,208.4,257.9,294.3-6.5-17.2-12.6-34.7-18.3-52.3-47.8-147-66.4-296.5-59-442.2-78.9,46.5-142.3,116.5-180.6,200.3Z"/><path class="cls-5" d="m503.7,53.4c-248.7,0-450.4,201.6-450.4,450.4s201.6,450.4,450.4,450.4,450.4-201.6,450.4-450.4S752.5,53.4,503.7,53.4Zm0,874.1c-234,0-423.8-189.7-423.8-423.8S269.7,80,503.7,80s423.8,189.7,423.8,423.8-189.7,423.8-423.8,423.8Z"/><path class="cls-3" d="m503.7,46.3c-252.6,0-457.5,204.8-457.5,457.5s204.8,457.5,457.5,457.5,457.5-204.8,457.5-457.5S756.4,46.3,503.7,46.3Zm0,887.9c-237.7,0-430.4-192.7-430.4-430.4S266,73.3,503.7,73.3s430.4,192.7,430.4,430.4-192.7,430.4-430.4,430.4Z"/></svg>