<?xml version="1.0" encoding="UTF-8"?><svg id="Full_Open" xmlns="http://www.w3.org/2000/svg" xmlns:xlink="http://www.w3.org/1999/xlink" viewBox="0 0 1007.5 1007.5"><defs><style>.cls-1{fill:url(#linear-gradient-2);}.cls-2{fill:#262626;}.cls-3{fill:#3f3f3f;}.cls-4{fill:url(#linear-gradient-6);}.cls-5{fill:url(#linear-gradient-11);}.cls-6{fill:url(#linear-gradient-10);}.cls-7{fill:url(#linear-gradient-5);}.cls-8{fill:url(#linear-gradient-7);}.cls-9{fill:url(#linear-gradient-9);}.cls-10{fill:url(#linear-gradient-3);}.cls-11{fill:url(#linear-gradient);}.cls-12{fill:url(#linear-gradient-4);}.cls-13{fill:#666;}.cls-14{fill:url(#linear-gradient-8);}</style><linearGradient id="linear-gradient" x1="318.2" y1="412.3" x2="164.6" y2="784.7" gradientUnits="userSpaceOnUse"><stop offset="0" stop-color="#2a2a2a"/><stop offset=".5" stop-color="#1a1a1a"/><stop offset="1" stop-color="#0f0f0f"/></linearGradient><linearGradient id="linear-gradient-2" x1="267.5" y1="518.2" x2="406.5" y2="899.2" xlink:href="#linear-gradient"/><linearGradient id="linear-gradient-3" x1="358.4" y1="635.9" x2="676.2" y2="936.8" xlink:href="#linear-gradient"/><linearGradient id="linear-gradient-4" x1="243.9" y1="724.5" x2="839.1" y2="724.5" xlink:href="#linear-gradient"/><linearGradient id="linear-gradient-5" x1="663.7" y1="631.8" x2="981.7" y2="480.8" xlink:href="#linear-gradient"/><linearGradient id="linear-gradient-6" x1="714" y1="511.4" x2="880.2" y2="181.1" xlink:href="#linear-gradient"/><linearGradient id="linear-gradient-7" x1="692.9" y1="412.3" x2="615.1" y2="79.9" xlink:href="#linear-gradient"/><linearGradient id="linear-gradient-8" x1="652" y1="387.7" x2="333.7" y2="60" xlink:href="#linear-gradient"/><linearGradient id="linear-gradient-9" x1="512.5" y1="287.5" x2="162.8" y2="279.1" xlink:href="#linear-gradient"/><linearGradient id="linear-gradient-10" x1="405.5" y1="329.7" x2="1.5" y2="557" xlink:href="#linear-gradient"/><linearGradient id="linear-gradient-11" x1="503.7" y1="960.3" x2="503.7" y2="59.6" gradientUnits="userSpaceOnUse"><stop offset="0" stop-color="#d1d3d4"/><stop offset="1" stop-color="#0f0f0f"/></linearGradient></defs><path class="cls-2" d="m503.8,3.8C227.6,3.8,3.8,227.6,3.8,503.7s223.9,500,500,500,500-223.9,500-500S779.9,3.8,503.8,3.8Zm0,817.8c-175.5,0-317.8-142.3-317.8-317.8S328.2,186,503.8,186s317.8,142.3,317.8,317.8-142.3,317.8-317.8,317.8Z"/><g><g><path class="cls-13" d="m347.3,711.1c-107.9-81.5-204.1-172.9-288.1-271.9-3,21.1-4.6,42.6-4.6,64.5,0,75.5,18.6,146.6,51.5,209,99.9,24.3,203.2,40.3,309,47.1-22.8-15.7-45.4-31.9-67.7-48.7Z"/><path class="cls-11" d="m351.2,714c-109.4-79.5-207.2-169.1-293.1-266.5-2.3,18.4-3.5,37.2-3.5,56.2,0,78.4,20.1,152.2,55.5,216.4,100.3,22.4,203.9,36.5,309.8,41.3-23.1-15.2-46-31-68.6-47.5Z"/><g><path class="cls-13" d="m499.1,763.5c-135.3-2.5-266.7-19.9-392.9-50.6,44.1,83.7,113.8,151.7,198.8,193.7,95.1-39.1,188-86.8,277.6-143.5-27.7.7-55.5.9-83.4.4Z"/><path class="cls-1" d="m503.9,763.5c-135.3,0-267-15-393.8-43.3,45.6,82.7,116.5,149.5,202.3,190,94.4-40.8,186.4-90.3,274.9-148.6-27.6,1.3-55.5,1.9-83.4,1.9Z"/><path class="cls-13" d="m652.6,716.6c-110.9,77.5-227.5,140.7-347.6,190,59.9,29.6,127.4,46.3,198.8,46.3s51.2-2.2,75.9-6.4c54-87.5,101-180.7,140.2-279.2-21.9,16.9-44.4,33.3-67.3,49.3Z"/><path class="cls-10" d="m656.5,713.8c-109.4,79.5-224.9,144.9-344,196.5,58,27.3,122.9,42.6,191.3,42.6s56.9-2.7,84.1-7.9c52.3-88.5,97.7-182.6,135-281.8-21.6,17.3-43.7,34.1-66.4,50.6Z"/><path class="cls-13" d="m825.4,817.2c-7.8-102.5-24.5-205.5-50.7-308.2-7.8,26.5-16.3,53-25.4,79.5-44.2,127.8-101.3,247.5-169.5,358,95.5-16.3,180.8-62.8,245.6-129.3Z"/><path class="cls-12" d="m831.2,811.2c-9.7-102.3-28.3-205-56.4-307.2-7.3,26.7-15.3,53.3-24,79.9-41.8,128.6-96.7,249.3-162.8,361.1,95.1-18,179.5-66.1,243.2-133.8Z"/><path class="cls-13" d="m726,348.8c9.3,26.1,18,52.5,26.1,79.2,39.4,129.4,63.5,259.7,73.3,389.2,64.7-66.3,109-152.6,122.8-248.7-66.6-78.4-140.7-152-222.2-219.7Z"/><path class="cls-7" d="m723.1,344.7c9.7,25.9,19,52.2,27.6,78.7,41.8,128.6,68.3,258.5,80.5,387.7,63.3-67.4,106.1-154.4,118.2-251-68-77.1-143.5-149.3-226.3-215.5Z"/><path class="cls-13" d="m660.2,296.5c107.9,81.5,204.1,172.9,288.1,271.9,3-21.1,4.6-42.6,4.6-64.6,0-75.4-18.6-146.5-51.5-208.9-99.9-24.3-203.2-40.3-309-47.1,22.8,15.7,45.4,31.9,67.7,48.7Z"/><path class="cls-4" d="m656.3,293.6c109.4,79.5,207.2,169,293.1,266.4,2.3-18.4,3.5-37.2,3.5-56.3,0-78.4-20.1-152.1-55.4-216.3-100.4-22.4-203.9-36.5-309.8-41.3,23.1,15.2,46,31,68.6,47.5Z"/><path class="cls-13" d="m508.4,244c135.3,2.5,266.7,19.9,392.9,50.6-44.1-83.7-113.8-151.7-198.7-193.7-95.1,39.1-188,86.8-277.6,143.5,27.7-.7,55.5-.9,83.4-.4Z"/><path class="cls-8" d="m503.6,244c135.3,0,267,15,393.8,43.3-45.6-82.7-116.5-149.5-202.3-190-94.4,40.8-186.4,90.3-274.9,148.6,27.6-1.3,55.5-1.9,83.4-1.9Z"/><path class="cls-13" d="m354.9,290.9c110.9-77.5,227.5-140.7,347.6-190-59.9-29.6-127.4-46.2-198.7-46.2s-51.3,2.2-75.9,6.4c-54,87.5-101,180.7-140.2,279.2,21.9-16.9,44.4-33.3,67.3-49.3Z"/><path class="cls-14" d="m351,293.7c109.4-79.5,224.8-144.9,344-196.4-58-27.3-122.8-42.6-191.2-42.6s-56.9,2.7-84.2,7.9c-52.3,88.5-97.7,182.6-135,281.8,21.6-17.3,43.7-34.1,66.4-50.6Z"/></g></g><path class="cls-13" d="m258.2,419c44.2-127.8,101.4-247.5,169.5-358-95.5,16.3-180.8,62.8-245.6,129.2,7.8,102.5,24.5,205.6,50.7,308.2,7.8-26.5,16.3-53,25.4-79.5Z"/><path class="cls-9" d="m256.7,423.6c41.8-128.6,96.7-249.3,162.8-361.1-95.1,18-179.5,66-243.2,133.8,9.7,102.3,28.3,205.1,56.4,307.2,7.3-26.7,15.3-53.3,24-79.9Z"/><path class="cls-13" d="m281.4,658.8c-9.3-26.1-18-52.5-26.1-79.2-39.4-129.4-63.5-259.7-73.3-389.2-64.7,66.4-108.9,152.7-122.8,248.8,66.5,78.4,140.7,151.9,222.2,219.6Z"/><path class="cls-6" d="m283.5,660.6c-9.4-25.2-18.4-50.7-26.8-76.5-41.8-128.6-68.3-258.5-80.5-387.7-61.5,65.5-103.6,149.5-117,242.8,67.1,79,141.9,153.2,224.3,221.4Z"/></g><path class="cls-5" d="m503.8,53.4c-248.7,0-450.4,201.6-450.4,450.4s201.6,450.4,450.4,450.4,450.4-201.6,450.4-450.4S752.5,53.4,503.8,53.4Zm0,874.1c-234,0-423.8-189.7-423.8-423.8S269.7,80,503.8,80s423.8,189.7,423.8,423.8-189.7,423.8-423.8,423.8Z"/><path class="cls-3" d="m503.8,46.3c-252.6,0-457.5,204.8-457.5,457.5s204.8,457.5,457.5,457.5,457.5-204.8,457.5-457.5S756.4,46.3,503.8,46.3Zm0,887.9c-237.7,0-430.4-192.7-430.4-430.4S266,73.3,503.8,73.3s430.4,192.7,430.4,430.4-192.7,430.4-430.4,430.4Z"/></svg>