<?xml version="1.0" encoding="UTF-8"?><svg id="Layer_1" xmlns="http://www.w3.org/2000/svg" width="1920" height="1080" viewBox="0 0 1920 1080"><defs><style>.cls-1{fill:none;}.cls-2{fill:#fff;}</style></defs><path class="cls-1" d="m102.68,918.44c12.8,5.82,27.02,9.06,42,9.06h1630.64c14.98,0,29.2-3.24,42-9.06,26.8-12.17,47.38-35.63,55.68-64.31,2.6-8.99,4-18.49,4-28.32V254.18c0-9.83-1.4-19.33-4-28.32-7.07-24.44-23.06-45.08-44.22-58.18-15.53-9.62-33.85-15.18-53.46-15.18H144.68c-19.62,0-37.93,5.56-53.46,15.18-21.16,13.1-37.15,33.75-44.22,58.18-2.6,8.99-4,18.49-4,28.32v571.64c0,9.83,1.4,19.33,4,28.32,8.3,28.68,28.88,52.14,55.68,64.31Z"/><path class="cls-2" d="m8,118c14.91,0,27-12.09,27-27v-31c0-14.91-12.09-27-27-27H2c-.67,0-1.34.03-2,.08v84.84c.66.05,1.33.08,2,.08h6Z"/><path class="cls-2" d="m1912,33c-14.91,0-27,12.09-27,27v31c0,14.91,12.09,27,27,27h6c.67,0,1.34-.03,2-.08V33.08c-.66-.05-1.33-.08-2-.08h-6Z"/><path class="cls-2" d="m8,1047c14.91,0,27-12.09,27-27v-31c0-14.91-12.09-27-27-27H2c-.67,0-1.34.03-2,.08v84.84c.66.05,1.33.08,2,.08h6Z"/><path class="cls-2" d="m1885,989v31c0,14.91,12.09,27,27,27h6v-85h-6c-14.91,0-27,12.09-27,27Z"/><rect class="cls-2" x="159" y="33" width="70" height="85" rx="27" ry="27"/><rect class="cls-2" x="355" y="33" width="70" height="85" rx="27" ry="27"/><rect class="cls-2" x="545" y="33" width="70" height="85" rx="27" ry="27"/><rect class="cls-2" x="735" y="33" width="70" height="85" rx="27" ry="27"/><rect class="cls-2" x="545" y="962" width="70" height="85" rx="27" ry="27"/><rect class="cls-2" x="159" y="962" width="70" height="85" rx="27" ry="27"/><rect class="cls-2" x="355" y="962" width="70" height="85" rx="27" ry="27"/><rect class="cls-2" x="1691" y="33" width="70" height="85" rx="27" ry="27"/><rect class="cls-2" x="1496" y="33" width="70" height="85" rx="27" ry="27"/><path class="cls-1" d="m325,928h1271c3.16,0,6.27-.17,9.34-.5H315.66c3.07.33,6.18.5,9.34.5Z"/><rect class="cls-2" x="1304" y="33" width="70" height="85" rx="27" ry="27"/><rect class="cls-2" x="924" y="33" width="70" height="85" rx="27" ry="27"/><rect class="cls-2" x="1116" y="33" width="70" height="85" rx="27" ry="27"/><rect class="cls-2" x="1304" y="962" width="70" height="85" rx="27" ry="27"/><rect class="cls-2" x="735" y="962" width="70" height="85" rx="27" ry="27"/><rect class="cls-2" x="1691" y="962" width="70" height="85" rx="27" ry="27"/><rect class="cls-2" x="1496" y="962" width="70" height="85" rx="27" ry="27"/><rect class="cls-2" x="1116" y="962" width="70" height="85" rx="27" ry="27"/><rect class="cls-2" x="924" y="962" width="70" height="85" rx="27" ry="27"/><polygon points="1873 1069 47 1069 47 1078 0 1078 0 1080 1920 1080 1920 1078 1873 1078 1873 1069"/><path d="m1761,927.5h-155.66c-3.07.33-6.18.5-9.34.5H325c-3.16,0-6.27-.17-9.34-.5h-138.66v6.5H47v17h1826v-17h-112v-6.5Z"/><path d="m47,1069h1826v-118H47v118Zm1644-80c0-14.91,12.09-27,27-27h16c14.91,0,27,12.09,27,27v31c0,14.91-12.09,27-27,27h-16c-14.91,0-27-12.09-27-27v-31Zm-195,0c0-14.91,12.09-27,27-27h16c14.91,0,27,12.09,27,27v31c0,14.91-12.09,27-27,27h-16c-14.91,0-27-12.09-27-27v-31Zm-192,0c0-14.91,12.09-27,27-27h16c14.91,0,27,12.09,27,27v31c0,14.91-12.09,27-27,27h-16c-14.91,0-27-12.09-27-27v-31Zm-188,0c0-14.91,12.09-27,27-27h16c14.91,0,27,12.09,27,27v31c0,14.91-12.09,27-27,27h-16c-14.91,0-27-12.09-27-27v-31Zm-192,0c0-14.91,12.09-27,27-27h16c14.91,0,27,12.09,27,27v31c0,14.91-12.09,27-27,27h-16c-14.91,0-27-12.09-27-27v-31Zm-189,0c0-14.91,12.09-27,27-27h16c14.91,0,27,12.09,27,27v31c0,14.91-12.09,27-27,27h-16c-14.91,0-27-12.09-27-27v-31Zm-190,0c0-14.91,12.09-27,27-27h16c14.91,0,27,12.09,27,27v31c0,14.91-12.09,27-27,27h-16c-14.91,0-27-12.09-27-27v-31Zm-190,0c0-14.91,12.09-27,27-27h16c14.91,0,27,12.09,27,27v31c0,14.91-12.09,27-27,27h-16c-14.91,0-27-12.09-27-27v-31Zm-169-27h16c14.91,0,27,12.09,27,27v31c0,14.91-12.09,27-27,27h-16c-14.91,0-27-12.09-27-27v-31c0-14.91,12.09-27,27-27Z"/><polygon points="47 146 177 146 177 152.5 1761 152.5 1761 146 1873 146 1873 140 47 140 47 146"/><polygon points="0 0 0 1 47 1 47 22 1873 22 1873 1 1920 1 1920 0 0 0"/><path d="m1873,140V22H47v118h1826Zm-182-80c0-14.91,12.09-27,27-27h16c14.91,0,27,12.09,27,27v31c0,14.91-12.09,27-27,27h-16c-14.91,0-27-12.09-27-27v-31Zm-195,0c0-14.91,12.09-27,27-27h16c14.91,0,27,12.09,27,27v31c0,14.91-12.09,27-27,27h-16c-14.91,0-27-12.09-27-27v-31Zm-192,0c0-14.91,12.09-27,27-27h16c14.91,0,27,12.09,27,27v31c0,14.91-12.09,27-27,27h-16c-14.91,0-27-12.09-27-27v-31Zm-188,0c0-14.91,12.09-27,27-27h16c14.91,0,27,12.09,27,27v31c0,14.91-12.09,27-27,27h-16c-14.91,0-27-12.09-27-27v-31Zm-192,0c0-14.91,12.09-27,27-27h16c14.91,0,27,12.09,27,27v31c0,14.91-12.09,27-27,27h-16c-14.91,0-27-12.09-27-27v-31Zm-189,0c0-14.91,12.09-27,27-27h16c14.91,0,27,12.09,27,27v31c0,14.91-12.09,27-27,27h-16c-14.91,0-27-12.09-27-27v-31Zm-190,0c0-14.91,12.09-27,27-27h16c14.91,0,27,12.09,27,27v31c0,14.91-12.09,27-27,27h-16c-14.91,0-27-12.09-27-27v-31Zm-190,0c0-14.91,12.09-27,27-27h16c14.91,0,27,12.09,27,27v31c0,14.91-12.09,27-27,27h-16c-14.91,0-27-12.09-27-27v-31Zm-169-27h16c14.91,0,27,12.09,27,27v31c0,14.91-12.09,27-27,27h-16c-14.91,0-27-12.09-27-27v-31c0-14.91,12.09-27,27-27Z"/><path d="m35,989v31c0,14.91-12.09,27-27,27h10c14.91,0,27-12.09,27-27v-31c0-14.91-12.09-27-27-27h-10c14.91,0,27,12.09,27,27Z"/><path d="m35,60v31c0,14.91-12.09,27-27,27h10c14.91,0,27-12.09,27-27v-31c0-14.91-12.09-27-27-27h-10c14.91,0,27,12.09,27,27Z"/><path d="m47,854.13c-2.6-8.99-4-18.49-4-28.32V254.18c0-9.83,1.4-19.33,4-28.32v-62.87H0v765h47v-73.87Z"/><rect y="1069" width="47" height="9"/><polygon points="47 934 47 928 0 928 0 951 47 951 47 934"/><path d="m47,951H0v11h18c14.91,0,27,12.09,27,27v31c0,14.91-12.09,27-27,27H0v22h47v-118Z"/><polygon points="47 146 47 140 0 140 0 163 47 163 47 146"/><rect y="1" width="47" height="21"/><path d="m47,22H0v11h18c14.91,0,27,12.09,27,27v31c0,14.91-12.09,27-27,27H0v22h47V22Z"/><path d="m1885,91v-31c0-14.91,12.09-27,27-27h-10c-14.91,0-27,12.09-27,27v31c0,14.91,12.09,27,27,27h10c-14.91,0-27-12.09-27-27Z"/><rect x="1891" y="163" width="29" height="765"/><path d="m1885,1020v-31c0-14.91,12.09-27,27-27h-10c-14.91,0-27,12.09-27,27v31c0,14.91,12.09,27,27,27h10c-14.91,0-27-12.09-27-27Z"/><polygon points="1873 146 1891 146 1891 163 1920 163 1920 140 1873 140 1873 146"/><rect x="1873" y="1" width="47" height="21"/><path d="m1873,140h47v-22h-18c-14.91,0-27-12.09-27-27v-31c0-14.91,12.09-27,27-27h18v-11h-47v118Z"/><polygon points="1873 1069 1873 1078 1920 1078 1920 1047 1918 1047 1918 1069 1873 1069"/><polygon points="1891 934 1873 934 1873 951 1918 951 1918 962 1920 962 1920 928 1891 928 1891 934"/><path d="m1873,951v118h45v-22h-16c-14.91,0-27-12.09-27-27v-31c0-14.91,12.09-27,27-27h16v-11h-45Z"/><path d="m91.22,167.68c-8.85-3.03-18.34-4.68-28.22-4.68h-16v62.87c7.07-24.44,23.06-45.08,44.22-58.18Z"/><path d="m102.68,918.44c-26.8-12.17-47.38-35.63-55.68-64.31v73.87h16c14.29,0,27.78-3.45,39.68-9.56Z"/><path d="m91.22,167.68c15.53-9.62,33.85-15.18,53.46-15.18h32.32v-6.5H47v17h16c9.88,0,19.37,1.65,28.22,4.68Z"/><path d="m177,927.5h-32.32c-14.98,0-29.2-3.24-42-9.06-11.9,6.11-25.39,9.56-39.68,9.56h-16v6h130v-6.5Z"/><path d="m1873,225.87v-62.87h-16c-9.88,0-19.37,1.65-28.22,4.68,21.16,13.1,37.15,33.75,44.22,58.18Z"/><path d="m1817.32,918.44c11.9,6.11,25.39,9.56,39.68,9.56h16v-73.87c-8.3,28.68-28.88,52.14-55.68,64.31Z"/><path d="m1761,152.5h14.32c19.62,0,37.93,5.56,53.46,15.18,8.85-3.03,18.34-4.68,28.22-4.68h16v-17h-112v6.5Z"/><path d="m1857,928c-14.29,0-27.78-3.45-39.68-9.56-12.8,5.82-27.02,9.06-42,9.06h-14.32v6.5h112v-6h-16Z"/><path d="m1873,225.87c2.6,8.99,4,18.49,4,28.32v571.64c0,9.83-1.4,19.33-4,28.32v73.87h18V163h-18v62.87Z"/><rect x="1873" y="146" width="18" height="17"/><rect x="1873" y="928" width="18" height="6"/><path class="cls-2" d="m1920,33.08v-.08h-2c.67,0,1.34.03,2,.08Z"/><path class="cls-2" d="m1920,118v-.08c-.66.05-1.33.08-2,.08h2Z"/><path class="cls-2" d="m0,117.92v.08h2c-.67,0-1.34-.03-2-.08Z"/><path class="cls-2" d="m0,33v.08c.66-.05,1.33-.08,2-.08H0Z"/><path class="cls-2" d="m0,1046.92v.08h2c-.67,0-1.34-.03-2-.08Z"/><path class="cls-2" d="m0,962v.08c.66-.05,1.33-.08,2-.08H0Z"/><path class="cls-2" d="m1920,1046.92c-.66.05-1.33.08-2,.08h2v-.08Z"/><path class="cls-2" d="m1920,962.08v-.08h-2c.67,0,1.34.03,2,.08Z"/></svg>