<?xml version="1.0" encoding="UTF-8"?><svg id="Full_Open_copy" xmlns="http://www.w3.org/2000/svg" xmlns:xlink="http://www.w3.org/1999/xlink" viewBox="0 0 1007.5 1007.5"><defs><style>.cls-1{fill:url(#linear-gradient-2);}.cls-2{fill:#262626;}.cls-3{fill:#3f3f3f;}.cls-4{fill:url(#linear-gradient-6);}.cls-5{fill:url(#linear-gradient-11);}.cls-6{fill:url(#linear-gradient-10);}.cls-7{fill:url(#linear-gradient-5);}.cls-8{fill:url(#linear-gradient-7);}.cls-9{fill:url(#linear-gradient-9);}.cls-10{fill:url(#linear-gradient-3);}.cls-11{fill:url(#linear-gradient);}.cls-12{fill:url(#linear-gradient-4);}.cls-13{fill:#666;}.cls-14{fill:url(#linear-gradient-8);}</style><linearGradient id="linear-gradient" x1="299.7" y1="401.2" x2="128.7" y2="815.9" gradientTransform="translate(268.8 -170.1) rotate(26)" gradientUnits="userSpaceOnUse"><stop offset="0" stop-color="#2a2a2a"/><stop offset=".5" stop-color="#1a1a1a"/><stop offset="1" stop-color="#0f0f0f"/></linearGradient><linearGradient id="linear-gradient-2" x1="243.3" y1="519.2" x2="397.9" y2="943.3" xlink:href="#linear-gradient"/><linearGradient id="linear-gradient-3" x1="344.5" y1="650.2" x2="698.2" y2="985.1" xlink:href="#linear-gradient"/><linearGradient id="linear-gradient-4" x1="216.9" y1="748.8" x2="879.6" y2="748.8" xlink:href="#linear-gradient"/><linearGradient id="linear-gradient-5" x1="684.4" y1="645.6" x2="1038.3" y2="477.5" xlink:href="#linear-gradient"/><linearGradient id="linear-gradient-6" x1="740.3" y1="511.6" x2="925.4" y2="143.8" xlink:href="#linear-gradient"/><linearGradient id="linear-gradient-7" x1="716.8" y1="401.3" x2="630.1" y2="31.2" xlink:href="#linear-gradient"/><linearGradient id="linear-gradient-8" x1="671.2" y1="373.9" x2="316.9" y2="9.1" xlink:href="#linear-gradient"/><linearGradient id="linear-gradient-9" x1="515.9" y1="262.3" x2="126.7" y2="253" xlink:href="#linear-gradient"/><linearGradient id="linear-gradient-10" x1="396.9" y1="309.3" x2="-52.9" y2="562.3" xlink:href="#linear-gradient"/><linearGradient id="linear-gradient-11" x1="503.8" y1="960.3" x2="503.8" y2="59.6" gradientUnits="userSpaceOnUse"><stop offset="0" stop-color="#d1d3d4"/><stop offset="1" stop-color="#0f0f0f"/></linearGradient></defs><g><g><path class="cls-13" d="m246.2,635.1c-68.3-134.2-120-272.5-155.9-412.5-13.3,19.6-25.4,40.4-36,62.3C17.4,360.4,1.4,440.7,3.9,519.2c88.2,73,183.7,139.3,286.3,197.7-15.2-26.8-29.9-54.1-44-81.8Z"/><path class="cls-11" d="m248.6,639.8c-70.8-132.9-125.1-270.2-163.5-409.5-11.3,17.3-21.6,35.5-30.9,54.6C16,363.4.2,447,4.3,528.5c89.5,71.3,186.3,135.8,289.9,192.3-15.7-26.5-30.9-53.5-45.5-81Z"/><g><path class="cls-13" d="m372.5,761.4C238.4,693,115.2,611.5,3.9,519.3c3.4,105.2,40,207.3,104.5,290.7,114.2,7.2,230.5,4.7,347.8-8.4-28.1-12.7-56-26.1-83.7-40.3Z"/><path class="cls-1" d="m377.3,763.8C241.9,697.9,117.3,618.7,4.3,528.6c5.3,105,43.7,206.4,109.9,288.7,114.3,5.1,230.5.4,347.6-14.8-28.3-12.2-56.4-25.1-84.4-38.7Z"/><path class="cls-13" d="m549,789.3c-148.8,23.5-296.3,29.9-440.5,20.8,45.5,58.8,105,108.4,176.4,143.2,25.9,12.6,52.4,22.8,79.1,30.6,96.7-61.3,189.2-131.7,276.4-211.2-30.2,6.2-60.6,11.7-91.4,16.6Z"/><path class="cls-10" d="m554.3,788.4c-148.3,26.3-295.7,35.4-440.1,29,44.8,55.6,102.2,102.5,170.6,135.9,28.8,14,58.2,25,88,33.1,95.5-63.1,186.7-135.2,272.5-216.3-30.1,6.8-60.4,12.9-91.1,18.3Z"/><path class="cls-13" d="m673,974.2c42.1-106.4,75.6-217.7,99.5-333.2-20.8,22.8-42.2,45.1-64.2,67.2-106.5,106.4-222,198.3-344.1,275.7,103.6,30.2,211.6,25.3,308.8-9.7Z"/><path class="cls-12" d="m681.7,971c40.2-107.1,71.6-219,93.3-335-20.4,23.1-41.3,45.9-62.9,68.3-104.5,108.4-218.3,202.4-338.9,282.1,103.9,28.3,211.9,21.4,308.6-15.5Z"/><path class="cls-13" d="m801.7,457c-3.4,30.6-7.6,61.3-12.5,92.1-23.6,148.7-63,290.9-116.3,425.2,97-34.9,183.4-99.7,244.1-189.1-28.4-110.9-66.8-220.6-115.4-328.2Z"/><path class="cls-7" d="m800.8,451.4c-2.9,30.7-6.4,61.4-10.7,92.3-20.8,149.1-57.6,292-108.4,427.3,96.3-36.6,181.4-102.9,240.6-193.6-30.5-110.3-70.8-219.4-121.5-326Z"/><path class="cls-13" d="m761.3,372.5c68.3,134.2,120,272.5,155.9,412.5,13.3-19.6,25.4-40.4,36.1-62.4,36.8-75.5,52.8-155.7,50.3-234.2-88.2-73-183.7-139.3-286.3-197.7,15.2,26.8,29.9,54.1,44,81.8Z"/><path class="cls-4" d="m758.8,367.7c70.8,132.9,125.1,270.2,163.5,409.5,11.3-17.3,21.6-35.6,30.9-54.6,38.2-78.5,54-162.1,49.9-243.5-89.5-71.4-186.3-135.9-289.9-192.3,15.7,26.5,30.9,53.5,45.5,81Z"/><path class="cls-13" d="m635,246.1c134.2,68.4,257.3,149.9,368.6,242.1-3.4-105.2-40-207.3-104.5-290.7-114.2-7.2-230.5-4.7-347.8,8.4,28.1,12.7,56,26.1,83.7,40.3Z"/><path class="cls-8" d="m630.2,243.7c135.4,65.9,260,145.1,373,235.2-5.3-105-43.7-206.4-109.9-288.7-114.3-5.1-230.5-.4-347.6,14.8,28.3,12.2,56.4,25.1,84.4,38.7Z"/><path class="cls-13" d="m458.5,218.1c148.7-23.5,296.2-29.9,440.5-20.8-45.5-58.8-105-108.4-176.4-143.1-25.9-12.6-52.4-22.8-79.1-30.6-96.6,61.3-189.2,131.7-276.4,211.1,30.2-6.2,60.6-11.7,91.4-16.6Z"/><path class="cls-14" d="m453.2,219c148.3-26.3,295.6-35.4,440-29-44.7-55.6-102.2-102.5-170.6-135.8-28.8-14-58.3-25-88.1-33.1-95.5,63.1-186.7,135.2-272.4,216.2,30.1-6.8,60.4-12.9,91.1-18.3Z"/></g></g><path class="cls-13" d="m299.3,299.3c106.5-106.4,222-198.3,344.1-275.7-103.6-30.3-211.6-25.3-308.8,9.7-42.2,106.4-75.6,217.7-99.5,333.2,20.8-22.8,42.2-45.1,64.2-67.2Z"/><path class="cls-9" d="m295.5,303.1c104.5-108.4,218.3-202.4,339-282.1C530.5-7.2,422.6-.3,325.8,36.5c-40.2,107.1-71.6,219-93.3,335,20.4-23.1,41.3-45.9,62.9-68.3Z"/><path class="cls-13" d="m205.7,550.6c3.4-30.6,7.6-61.3,12.5-92.1,23.6-148.7,63-290.9,116.3-425.2-97,34.9-183.4,99.7-244.1,189.2,28.4,110.8,66.8,220.6,115.4,328.1Z"/><path class="cls-6" d="m206.9,553.4c2.8-29.8,6.3-59.6,10.5-89.6,20.8-149.1,57.6-292,108.4-427.3-93.5,35.6-176.6,99.2-235.5,186,28.7,111.8,67.4,222.5,116.6,330.9Z"/></g><path class="cls-2" d="m503.8,3.7C227.6,3.7,3.8,227.6,3.8,503.7s223.9,500,500,500,500-223.9,500-500S779.9,3.7,503.8,3.7Zm0,922c-236.9,0-429-192.1-429-429S266.8,67.7,503.8,67.7s429,192.1,429,429-192.1,429-429,429Z"/><path class="cls-5" d="m503.8,53.4c-248.7,0-450.4,201.6-450.4,450.4s201.6,450.4,450.4,450.4,450.4-201.6,450.4-450.4S752.5,53.4,503.8,53.4Zm0,874.1c-234,0-423.8-189.7-423.8-423.8S269.7,80,503.8,80s423.8,189.7,423.8,423.8-189.7,423.8-423.8,423.8Z"/><path class="cls-3" d="m503.8,46.3c-252.6,0-457.5,204.8-457.5,457.5s204.8,457.5,457.5,457.5,457.5-204.8,457.5-457.5S756.4,46.3,503.8,46.3Zm0,887.9c-237.7,0-430.4-192.7-430.4-430.4S266,73.3,503.8,73.3s430.4,192.7,430.4,430.4-192.7,430.4-430.4,430.4Z"/></svg>