<?xml version="1.0" encoding="UTF-8"?><svg id="Close" xmlns="http://www.w3.org/2000/svg" xmlns:xlink="http://www.w3.org/1999/xlink" viewBox="0 0 1007.5 1007.5"><defs><style>.cls-1{fill:url(#linear-gradient-2);}.cls-2{fill:#262626;}.cls-3{fill:#3f3f3f;}.cls-4{fill:url(#linear-gradient-6);}.cls-5{fill:url(#linear-gradient-11);}.cls-6{fill:url(#linear-gradient-10);}.cls-7{fill:url(#linear-gradient-5);}.cls-8{fill:url(#linear-gradient-7);}.cls-9{fill:url(#linear-gradient-9);}.cls-10{fill:url(#linear-gradient-3);}.cls-11{fill:url(#linear-gradient);}.cls-12{fill:url(#linear-gradient-4);}.cls-13{fill:#666;}.cls-14{fill:url(#linear-gradient-8);}</style><linearGradient id="linear-gradient" x1="309.6" y1="417.2" x2="234.8" y2="598.6" gradientUnits="userSpaceOnUse"><stop offset="0" stop-color="#2a2a2a"/><stop offset=".5" stop-color="#1a1a1a"/><stop offset="1" stop-color="#0f0f0f"/></linearGradient><linearGradient id="linear-gradient-2" x1="285.6" y1="550.1" x2="353.3" y2="735.6" xlink:href="#linear-gradient"/><linearGradient id="linear-gradient-3" x1="355" y1="653" x2="509.8" y2="799.6" xlink:href="#linear-gradient"/><linearGradient id="linear-gradient-4" x1="378.4" y1="724.2" x2="668.4" y2="724.2" xlink:href="#linear-gradient"/><linearGradient id="linear-gradient-5" x1="633.2" y1="673.3" x2="788.1" y2="599.7" xlink:href="#linear-gradient"/><linearGradient id="linear-gradient-6" x1="711" y1="560.9" x2="792" y2="399.9" xlink:href="#linear-gradient"/><linearGradient id="linear-gradient-7" x1="707.9" y1="434.5" x2="670" y2="272.6" xlink:href="#linear-gradient"/><linearGradient id="linear-gradient-8" x1="660.9" y1="367.2" x2="505.9" y2="207.5" xlink:href="#linear-gradient"/><linearGradient id="linear-gradient-9" x1="511.9" y1="287.5" x2="341.6" y2="283.4" xlink:href="#linear-gradient"/><linearGradient id="linear-gradient-10" x1="400.9" y1="320.2" x2="204.1" y2="430.9" xlink:href="#linear-gradient"/><linearGradient id="linear-gradient-11" x1="505" y1="961.5" x2="505" y2="60.8" gradientUnits="userSpaceOnUse"><stop offset="0" stop-color="#d1d3d4"/><stop offset="1" stop-color="#0f0f0f"/></linearGradient></defs><path class="cls-2" d="m505,5C228.9,5,5,228.9,5,505s223.9,500,500,500,500-223.9,500-500S781.1,5,505,5Zm0,817.8c-175.5,0-317.8-142.3-317.8-317.8S329.5,187.2,505,187.2s317.8,142.3,317.8,317.8-142.3,317.8-317.8,317.8Z"/><g><path class="cls-13" d="m149.9,248.3c-56.3,77.8-83.3,168.2-83.1,257.7,116.5,70.4,250.8,114.4,395,123.7-11.1-7.6-22.1-15.5-33-23.7-127.4-96.2-221-220.5-278.9-357.7Z"/><path class="cls-11" d="m145.2,254.9c-54.8,78.8-80.2,169.7-78.3,259.2,117.8,68.2,252.9,109.7,397.2,116.4-11.3-7.4-22.4-15.1-33.4-23.1-129.1-93.8-225.1-216.4-285.5-352.5Z"/><path class="cls-13" d="m66.8,506.1c.2,96,31.4,185,84.3,257.3,135.6-11.5,270.2-54.9,392.2-132.1-13.5.4-27,.4-40.7.2-159.6-3-308.4-48.5-435.9-125.5Z"/><path class="cls-1" d="m66.9,514.2c2,96,34.9,184.4,89.1,255.7,135.4-14.1,269.1-59.9,389.7-139.3-13.5.6-27,.9-40.6.9-159.6,0-309.3-42.7-438.1-117.3Z"/><g><path class="cls-13" d="m151.1,763.4c56.6,77.6,134.2,131.2,219.5,158.6,102.9-89.1,186.3-203.2,239.7-337.4-10.7,8.2-21.6,16.2-32.8,24-130.9,91.4-278,142.1-426.4,154.7Z"/><path class="cls-10" d="m156,769.9c58,76.5,136.6,128.7,222.4,154.5,101.3-91,182.5-206.6,233.4-341.8-10.5,8.4-21.3,16.6-32.3,24.6-129.1,93.8-275.3,147.2-423.4,162.6Z"/><path class="cls-13" d="m370.6,922.1c91.4,29.5,185.7,27.3,270.8-.6,30.9-132.5,31.3-273.9-4.4-413.9-3.8,12.9-7.9,25.8-12.4,38.7-52.1,150.9-141.4,278.4-254,375.8Z"/><path class="cls-12" d="m378.4,924.5c91.9,27.8,186.2,23.8,270.7-5.7,28.5-133.1,26.2-274.5-12.1-413.7-3.6,13-7.5,26-11.7,38.9-49.3,151.8-136.2,280.9-247,380.4Z"/><path class="cls-13" d="m641.4,921.4c91.3-29.9,166.3-87.1,218.7-159.7-52.9-125.4-135.7-240-246.8-332.2,4.5,12.7,8.8,25.6,12.7,38.6,46.5,152.7,49.2,308.3,15.4,453.3Z"/><path class="cls-7" d="m649.1,918.8c90.7-31.6,164.6-90.1,215.7-163.7-55.2-124.4-140.1-237.4-252.9-327.6,4.7,12.6,9.2,25.4,13.4,38.4,49.3,151.8,54.9,307.3,23.8,453Z"/><path class="cls-13" d="m860.1,761.7c56.3-77.8,83.3-168.2,83.1-257.7-116.5-70.4-250.8-114.4-395-123.7,11.1,7.6,22.1,15.5,33,23.7,127.4,96.2,221,220.5,278.9,357.7Z"/><path class="cls-4" d="m864.8,755.1c54.8-78.8,80.2-169.7,78.3-259.2-117.8-68.2-252.9-109.7-397.2-116.4,11.3,7.4,22.4,15.1,33.4,23.1,129.1,93.8,225.1,216.4,285.5,352.5Z"/><path class="cls-13" d="m943.2,503.9c-.2-96-31.4-185-84.3-257.3-135.6,11.5-270.2,54.9-392.2,132.1,13.5-.4,27-.4,40.7-.2,159.6,3,308.4,48.5,435.9,125.5Z"/><path class="cls-8" d="m943.1,495.8c-2-96-34.9-184.4-89.1-255.7-135.4,14.1-269.1,59.9-389.7,139.3,13.5-.6,27-.9,40.6-.9,159.6,0,309.3,42.7,438.1,117.3Z"/><path class="cls-13" d="m858.9,246.6c-56.6-77.6-134.2-131.2-219.5-158.6-102.9,89.1-186.3,203.2-239.7,337.4,10.7-8.2,21.6-16.2,32.8-24,130.9-91.4,278-142.1,426.4-154.7Z"/><path class="cls-14" d="m854,240c-58-76.5-136.6-128.7-222.4-154.5-101.3,91-182.5,206.6-233.4,341.8,10.5-8.4,21.3-16.6,32.3-24.6,129.1-93.8,275.3-147.2,423.4-162.6Z"/><path class="cls-13" d="m639.4,87.9c-91.4-29.5-185.7-27.3-270.8.6-30.9,132.5-31.3,273.9,4.4,413.9,3.8-12.9,7.9-25.8,12.4-38.7,52.1-150.9,141.4-278.4,254-375.8Z"/><path class="cls-9" d="m631.6,85.5c-91.9-27.8-186.2-23.8-270.7,5.7-28.5,133.1-26.2,274.5,12.1,413.7,3.6-13,7.5-26,11.7-38.9,49.3-151.8,136.2-280.9,247-380.4Z"/></g><path class="cls-13" d="m368.6,88.6c-91.3,29.9-166.3,87.1-218.7,159.7,52.9,125.4,135.7,240,246.8,332.2-4.5-12.7-8.8-25.6-12.7-38.6-46.5-152.7-49.2-308.3-15.4-453.3Z"/><path class="cls-6" d="m397.7,581.4c-4.6-12.3-8.9-24.7-13-37.3-49.3-151.8-54.9-307.3-23.8-453-90.7,31.6-164.6,90.1-215.7,163.7,0,0,0,0,0,0,1.5-2.2,3.1-4.4,4.7-6.6,53,125.8,136.2,240.7,247.8,333.1Z"/></g><path class="cls-5" d="m505,54.6c-248.7,0-450.4,201.6-450.4,450.4s201.6,450.4,450.4,450.4,450.4-201.6,450.4-450.4S753.7,54.6,505,54.6Zm0,874.1c-234,0-423.8-189.7-423.8-423.8S271,81.2,505,81.2s423.8,189.7,423.8,423.8-189.7,423.8-423.8,423.8Z"/><path class="cls-3" d="m505,47.5c-252.6,0-457.5,204.8-457.5,457.5s204.8,457.5,457.5,457.5,457.5-204.8,457.5-457.5S757.6,47.5,505,47.5Zm0,887.9c-237.7,0-430.4-192.7-430.4-430.4S267.3,74.6,505,74.6s430.4,192.7,430.4,430.4-192.7,430.4-430.4,430.4Z"/></svg>